<?xml version="1.0" encoding="UTF-8"?><svg id="Body" xmlns="http://www.w3.org/2000/svg" viewBox="0 0 32 32"><defs><style>.cls-1{stroke:#000;stroke-miterlimit:10;stroke-width:2px;}</style></defs><path class="cls-1" d="M28,7h-2.76c-.8,0-1.56-.32-2.12-.88l-.24-.24c-.56-.56-1.33-.88-2.12-.88h-9.51c-.8,0-1.56.32-2.12.88l-.25.25c-.55.55-1.32.87-2.11.87h-2.76c-1.66,0-3,1.34-3,3v14c0,1.66,1.34,3,3,3h24c1.66,0,3-1.34,3-3v-14c0-1.66-1.34-3-3-3ZM16,21c-2.76,0-5-2.24-5-5s2.24-5,5-5,5,2.24,5,5-2.24,5-5,5ZM21,13c-1.1,0-2-.9-2-2s.9-2,2-2,2,.9,2,2-.9,2-2,2Z"/></svg>